<svg width="1080" height="1080" viewBox="0 0 1080 1080" fill="none" xmlns="http://www.w3.org/2000/svg">
<rect width="1080" height="1080" fill="#E94C00"/>
<mask id="path-2-inside-1_2200_33" fill="white">
<path d="M121 172.762C121 132.997 153.235 100.762 193 100.762H289C328.765 100.762 361 132.997 361 172.762V268.762C361 308.526 328.765 340.762 289 340.762H193C153.236 340.762 121 308.526 121 268.762V172.762Z"/>
</mask>
<path d="M193 100.762V148.762H289V100.762V52.7617H193V100.762ZM361 172.762H313V268.762H361H409V172.762H361ZM289 340.762V292.762H193V340.762V388.762H289V340.762ZM121 268.762H169V172.762H121H73V268.762H121ZM193 340.762V292.762C179.745 292.762 169 282.017 169 268.762H121H73C73 335.036 126.726 388.762 193 388.762V340.762ZM361 268.762H313C313 282.017 302.255 292.762 289 292.762V340.762V388.762C355.274 388.762 409 335.036 409 268.762H361ZM289 100.762V148.762C302.255 148.762 313 159.507 313 172.762H361H409C409 106.488 355.274 52.7617 289 52.7617V100.762ZM193 100.762V52.7617C126.726 52.7617 73 106.488 73 172.762H121H169C169 159.507 179.745 148.762 193 148.762V100.762Z" fill="white" mask="url(#path-2-inside-1_2200_33)"/>
<mask id="path-4-inside-2_2200_33" fill="white">
<path d="M121 492C121 452.236 153.235 420 193 420H289C328.765 420 361 452.235 361 492V588C361 627.765 328.765 660 289 660H193C153.236 660 121 627.765 121 588V492Z"/>
</mask>
<path d="M193 420V468H289V420V372H193V420ZM361 492H313V588H361H409V492H361ZM289 660V612H193V660V708H289V660ZM121 588H169V492H121H73V588H121ZM193 660V612C179.745 612 169 601.255 169 588H121H73C73 654.274 126.726 708 193 708V660ZM361 588H313C313 601.255 302.255 612 289 612V660V708C355.274 708 409 654.274 409 588H361ZM289 420V468C302.255 468 313 478.745 313 492H361H409C409 425.726 355.274 372 289 372V420ZM193 420V372C126.726 372 73 425.726 73 492H121H169C169 478.745 179.745 468 193 468V420Z" fill="white" mask="url(#path-4-inside-2_2200_33)"/>
<mask id="path-6-inside-3_2200_33" fill="white">
<path d="M121 811.239C121 771.475 153.235 739.239 193 739.239H289C328.765 739.239 361 771.475 361 811.239V907.239C361 947.004 328.765 979.239 289 979.239H193C153.236 979.239 121 947.004 121 907.239V811.239Z"/>
</mask>
<path d="M193 739.239V787.239H289V739.239V691.239H193V739.239ZM361 811.239H313V907.239H361H409V811.239H361ZM289 979.239V931.239H193V979.239V1027.24H289V979.239ZM121 907.239H169V811.239H121H73V907.239H121ZM193 979.239V931.239C179.745 931.239 169 920.494 169 907.239H121H73C73 973.513 126.726 1027.24 193 1027.24V979.239ZM361 907.239H313C313 920.494 302.255 931.239 289 931.239V979.239V1027.24C355.274 1027.24 409 973.513 409 907.239H361ZM289 739.239V787.239C302.255 787.239 313 797.984 313 811.239H361H409C409 744.965 355.274 691.239 289 691.239V739.239ZM193 739.239V691.239C126.726 691.239 73 744.965 73 811.239H121H169C169 797.984 179.745 787.239 193 787.239V739.239Z" fill="white" mask="url(#path-6-inside-3_2200_33)"/>
<mask id="path-8-inside-4_2200_33" fill="white">
<path d="M420 172.762C420 132.997 452.235 100.762 492 100.762H588C627.765 100.762 660 132.997 660 172.762V268.762C660 308.526 627.765 340.762 588 340.762H492C452.236 340.762 420 308.526 420 268.762V172.762Z"/>
</mask>
<path d="M492 100.762V148.762H588V100.762V52.7617H492V100.762ZM660 172.762H612V268.762H660H708V172.762H660ZM588 340.762V292.762H492V340.762V388.762H588V340.762ZM420 268.762H468V172.762H420H372V268.762H420ZM492 340.762V292.762C478.745 292.762 468 282.017 468 268.762H420H372C372 335.036 425.726 388.762 492 388.762V340.762ZM660 268.762H612C612 282.017 601.255 292.762 588 292.762V340.762V388.762C654.274 388.762 708 335.036 708 268.762H660ZM588 100.762V148.762C601.255 148.762 612 159.507 612 172.762H660H708C708 106.488 654.274 52.7617 588 52.7617V100.762ZM492 100.762V52.7617C425.726 52.7617 372 106.488 372 172.762H420H468C468 159.507 478.745 148.762 492 148.762V100.762Z" fill="white" mask="url(#path-8-inside-4_2200_33)"/>
<mask id="path-10-inside-5_2200_33" fill="white">
<path d="M420 492C420 452.236 452.235 420 492 420H588C627.765 420 660 452.235 660 492V588C660 627.765 627.765 660 588 660H492C452.236 660 420 627.765 420 588V492Z"/>
</mask>
<path d="M492 420V468H588V420V372H492V420ZM660 492H612V588H660H708V492H660ZM588 660V612H492V660V708H588V660ZM420 588H468V492H420H372V588H420ZM492 660V612C478.745 612 468 601.255 468 588H420H372C372 654.274 425.726 708 492 708V660ZM660 588H612C612 601.255 601.255 612 588 612V660V708C654.274 708 708 654.274 708 588H660ZM588 420V468C601.255 468 612 478.745 612 492H660H708C708 425.726 654.274 372 588 372V420ZM492 420V372C425.726 372 372 425.726 372 492H420H468C468 478.745 478.745 468 492 468V420Z" fill="white" mask="url(#path-10-inside-5_2200_33)"/>
<mask id="path-12-inside-6_2200_33" fill="white">
<path d="M420 811.239C420 771.475 452.235 739.239 492 739.239H588C627.765 739.239 660 771.475 660 811.239V907.239C660 947.004 627.765 979.239 588 979.239H492C452.236 979.239 420 947.004 420 907.239V811.239Z"/>
</mask>
<path d="M492 739.239V787.239H588V739.239V691.239H492V739.239ZM660 811.239H612V907.239H660H708V811.239H660ZM588 979.239V931.239H492V979.239V1027.24H588V979.239ZM420 907.239H468V811.239H420H372V907.239H420ZM492 979.239V931.239C478.745 931.239 468 920.494 468 907.239H420H372C372 973.513 425.726 1027.24 492 1027.24V979.239ZM660 907.239H612C612 920.494 601.255 931.239 588 931.239V979.239V1027.24C654.274 1027.24 708 973.513 708 907.239H660ZM588 739.239V787.239C601.255 787.239 612 797.984 612 811.239H660H708C708 744.965 654.274 691.239 588 691.239V739.239ZM492 739.239V691.239C425.726 691.239 372 744.965 372 811.239H420H468C468 797.984 478.745 787.239 492 787.239V739.239Z" fill="white" mask="url(#path-12-inside-6_2200_33)"/>
<mask id="path-14-inside-7_2200_33" fill="white">
<path d="M719 172.762C719 132.997 751.235 100.762 791 100.762H887C926.765 100.762 959 132.997 959 172.762V268.762C959 308.526 926.765 340.762 887 340.762H791C751.236 340.762 719 308.526 719 268.762V172.762Z"/>
</mask>
<path d="M791 100.762V148.762H887V100.762V52.7617H791V100.762ZM959 172.762H911V268.762H959H1007V172.762H959ZM887 340.762V292.762H791V340.762V388.762H887V340.762ZM719 268.762H767V172.762H719H671V268.762H719ZM791 340.762V292.762C777.745 292.762 767 282.017 767 268.762H719H671C671 335.036 724.726 388.762 791 388.762V340.762ZM959 268.762H911C911 282.017 900.255 292.762 887 292.762V340.762V388.762C953.274 388.762 1007 335.036 1007 268.762H959ZM887 100.762V148.762C900.255 148.762 911 159.507 911 172.762H959H1007C1007 106.488 953.274 52.7617 887 52.7617V100.762ZM791 100.762V52.7617C724.726 52.7617 671 106.488 671 172.762H719H767C767 159.507 777.745 148.762 791 148.762V100.762Z" fill="white" mask="url(#path-14-inside-7_2200_33)"/>
<mask id="path-16-inside-8_2200_33" fill="white">
<path d="M719 492C719 452.236 751.235 420 791 420H887C926.765 420 959 452.235 959 492V588C959 627.765 926.765 660 887 660H791C751.236 660 719 627.765 719 588V492Z"/>
</mask>
<path d="M791 420V468H887V420V372H791V420ZM959 492H911V588H959H1007V492H959ZM887 660V612H791V660V708H887V660ZM719 588H767V492H719H671V588H719ZM791 660V612C777.745 612 767 601.255 767 588H719H671C671 654.274 724.726 708 791 708V660ZM959 588H911C911 601.255 900.255 612 887 612V660V708C953.274 708 1007 654.274 1007 588H959ZM887 420V468C900.255 468 911 478.745 911 492H959H1007C1007 425.726 953.274 372 887 372V420ZM791 420V372C724.726 372 671 425.726 671 492H719H767C767 478.745 777.745 468 791 468V420Z" fill="white" mask="url(#path-16-inside-8_2200_33)"/>
<mask id="path-18-inside-9_2200_33" fill="white">
<path d="M719 811.239C719 771.475 751.235 739.239 791 739.239H887C926.765 739.239 959 771.475 959 811.239V907.239C959 947.004 926.765 979.239 887 979.239H791C751.236 979.239 719 947.004 719 907.239V811.239Z"/>
</mask>
<path d="M791 739.239V787.239H887V739.239V691.239H791V739.239ZM959 811.239H911V907.239H959H1007V811.239H959ZM887 979.239V931.239H791V979.239V1027.24H887V979.239ZM719 907.239H767V811.239H719H671V907.239H719ZM791 979.239V931.239C777.745 931.239 767 920.494 767 907.239H719H671C671 973.513 724.726 1027.24 791 1027.24V979.239ZM959 907.239H911C911 920.494 900.255 931.239 887 931.239V979.239V1027.24C953.274 1027.24 1007 973.513 1007 907.239H959ZM887 739.239V787.239C900.255 787.239 911 797.984 911 811.239H959H1007C1007 744.965 953.274 691.239 887 691.239V739.239ZM791 739.239V691.239C724.726 691.239 671 744.965 671 811.239H719H767C767 797.984 777.745 787.239 791 787.239V739.239Z" fill="white" mask="url(#path-18-inside-9_2200_33)"/>
</svg>
